<svg width="48" height="48" viewBox="0 0 48 48" fill="none" xmlns="http://www.w3.org/2000/svg">
<path fill-rule="evenodd" clip-rule="evenodd" d="M36 4H12C7.58172 4 4 7.58172 4 12V43C4 43.5522 4.44772 44 5 44C5.26424 43.9984 5.51666 43.8902 5.7 43.7L11.7 37.7C12.8487 36.5816 14.3971 35.9694 16 36H36C40.4182 36 44 32.4182 44 28V12C44 7.58172 40.4182 4 36 4ZM28 25C28 25.5522 27.5522 26 27 26H13C12.4477 26 12 25.5522 12 25V23C12 22.4478 12.4477 22 13 22H27C27.5522 22 28 22.4478 28 23V25ZM35 18C35.5522 18 36 17.5523 36 17V15C36 14.4477 35.5522 14 35 14H13C12.4477 14 12 14.4477 12 15V17C12 17.5523 12.4477 18 13 18H35Z" fill="#FFB483"/>
</svg>
